PathFileType	4	(X/Y/Z)	C:/Users/opensim2020/Desktop/walking_exp_matlab/subject03/subject03_trc/subject03_walking16_run_cyclic.trc	
DataRate	CameraRate	NumFrames	NumMarkers	Units	OrigDataRate	OrigDataStartFrame	OrigNumFrames	
100.00	100.00	8	49	mm	100.00	203	67	
Frame#	Time	RKNE			RTOE			RWRB			LTHI			RELB			RFRM			RUPA			RASI			LTIB			RWRA			RTHI			LSHO			LTOE			RTIB			LWRA			CLAV			LASI			RSHO			RFHD			STRN			LHEE			RFIN			RBHD			LFRM			C7			LWRB			LFIN			LUPA			LBHD			LELB			RANK			RHEE			RBAK			LPSI			T10			LFHD			RPSI			LKNE			LANK			*39			*40			*41			*42			*43			*44			*45			*46			*47			*48			
		X1	Y1	Z1	X2	Y2	Z2	X3	Y3	Z3	X4	Y4	Z4	X5	Y5	Z5	X6	Y6	Z6	X7	Y7	Z7	X8	Y8	Z8	X9	Y9	Z9	X10	Y10	Z10	X11	Y11	Z11	X12	Y12	Z12	X13	Y13	Z13	X14	Y14	Z14	X15	Y15	Z15	X16	Y16	Z16	X17	Y17	Z17	X18	Y18	Z18	X19	Y19	Z19	X20	Y20	Z20	X21	Y21	Z21	X22	Y22	Z22	X23	Y23	Z23	X24	Y24	Z24	X25	Y25	Z25	X26	Y26	Z26	X27	Y27	Z27	X28	Y28	Z28	X29	Y29	Z29	X30	Y30	Z30	X31	Y31	Z31	X32	Y32	Z32	X33	Y33	Z33	X34	Y34	Z34	X35	Y35	Z35	X36	Y36	Z36	X37	Y37	Z37	X38	Y38	Z38	X39	Y39	Z39	X40	Y40	Z40	X41	Y41	Z41	X42	Y42	Z42	X43	Y43	Z43	X44	Y44	Z44	X45	Y45	Z45	X46	Y46	Z46	X47	Y47	Z47	X48	Y48	Z48	X49	Y49	Z49	

10	0.090	337.14893	-1473.94812	475.23730	238.87694	-1765.41650	43.96510	353.48749	-1076.46802	1104.71863	68.62793	-1196.87622	667.61560	474.46091	-1259.79224	1097.93958	409.49298	-1158.57263	1103.52405	460.86899	-1276.76013	1179.34595	338.98380	-1245.65247	910.10248	100.84736	-1135.80212	303.02039	341.89825	-1101.16467	1150.31299	375.29636	-1408.40710	641.89917	75.44738	-1285.09973	1393.92651	182.86096	-992.22266	48.58874	338.54999	-1619.89600	344.41174	-8.73965	-1394.10657	994.03760	206.37175	-1214.24182	1332.47241	111.39938	-1243.01636	933.04761	359.57220	-1257.77673	1380.52588	284.37433	-1236.97571	1619.98914	197.03395	-1180.94141	1162.72681	178.89308	-1178.10022	60.83881	324.82809	-1024.07275	1146.40491	273.18295	-1344.46521	1547.71826	-70.07108	-1419.90857	1100.74219	214.06436	-1340.30542	1407.06653	-66.96438	-1385.49585	989.21161	-38.79561	-1405.18042	900.10120	-50.83833	-1397.41345	1295.39294	143.28204	-1333.26245	1545.32202	-94.59502	-1461.92444	1207.40063	297.44650	-1766.14661	185.39017	251.91959	-1803.16077	219.62738	322.27878	-1381.82422	1246.35474	154.51846	-1401.82251	968.33417	231.68631	-1391.12903	1103.68420	152.45134	-1220.46619	1618.04321	303.91937	-1395.19348	972.45599	105.11153	-1115.55029	507.41293	142.00093	-1135.39404	91.68535																						194.12230	-1320.45874	1656.17090						 
11	0.100	337.18765	-1442.19983	478.32452	243.21284	-1748.06360	53.91669	351.49463	-1047.06860	1107.50330	69.00983	-1167.49194	665.77362	475.69803	-1228.41553	1101.77527	408.84921	-1128.44165	1106.96606	461.84055	-1245.33435	1183.99475	339.47748	-1211.13269	911.97668	103.91408	-1096.90283	300.60840	339.77704	-1072.02698	1153.03247	375.87503	-1376.08118	645.78644	75.62550	-1254.06494	1395.25195	188.09303	-933.59100	54.19806	340.04355	-1589.52136	349.35474	-8.91339	-1360.69922	998.83081	205.98978	-1183.46912	1334.98108	112.43097	-1210.12476	935.09503	358.37738	-1226.87744	1383.51929	284.44019	-1206.69214	1621.31030	197.02400	-1148.63818	1165.79504	187.40398	-1120.91943	59.70873	321.29108	-994.67175	1148.61914	272.66043	-1314.49060	1549.25696	-71.14143	-1388.42627	1104.77686	213.51419	-1309.64001	1409.02185	-67.04208	-1353.55115	992.86407	-36.97501	-1373.65955	904.13495	-51.12494	-1366.91663	1299.45459	142.79230	-1302.71436	1547.01501	-96.15510	-1431.69189	1211.23157	301.13654	-1741.02637	195.06601	258.11105	-1777.85681	232.18452	322.71497	-1349.78198	1248.51648	156.41710	-1368.30151	971.06592	232.93272	-1358.35742	1106.38708	152.47020	-1189.83154	1619.49304	306.44708	-1359.72424	975.43439	104.14230	-1088.14124	504.10687	148.54831	-1081.71106	90.62878																						193.79858	-1289.52075	1657.90979						 
12	0.110	336.78525	-1405.99719	477.36853	248.33443	-1728.22986	64.11353	350.64560	-1017.76483	1106.27917	67.71679	-1139.81287	661.34723	477.48184	-1197.66736	1103.70313	409.06644	-1098.62476	1107.50061	463.51721	-1214.39673	1187.39954	340.02124	-1177.56079	913.19910	107.56156	-1063.28308	299.02557	338.67200	-1042.33582	1151.97839	376.49994	-1339.94556	646.05103	74.89362	-1222.65442	1395.13037	192.57405	-882.89606	60.40536	341.07263	-1557.13306	352.21936	-9.40366	-1324.89697	1000.85638	205.72302	-1152.65210	1336.34656	113.39571	-1178.22925	935.44611	357.60861	-1196.05347	1385.29980	284.37418	-1176.85071	1622.02734	198.06277	-1116.96362	1167.74268	196.14539	-1071.18835	59.97169	318.57550	-965.20270	1146.17261	272.05499	-1284.51746	1549.84399	-72.57548	-1355.24524	1105.86145	212.59535	-1278.93835	1409.79114	-67.41873	-1319.59216	993.77661	-35.08160	-1340.00793	905.38495	-51.66460	-1335.11157	1300.03662	142.18410	-1271.88501	1547.77356	-97.98696	-1399.94556	1211.86389	303.20303	-1716.46460	206.26950	259.87161	-1753.63513	244.26749	322.66541	-1318.11658	1249.31555	157.83069	-1335.58179	972.65338	233.92964	-1325.66040	1107.90381	152.43935	-1159.20337	1620.41125	308.51700	-1325.12378	977.74713	103.76101	-1060.67456	500.62485	154.84200	-1035.32581	90.41024																						193.27397	-1258.43762	1658.40833						 
13	0.120	336.37848	-1366.49854	473.43146	254.70233	-1704.32568	75.58746	351.26553	-988.57855	1101.13757	65.74601	-1113.39636	655.50043	479.91339	-1167.42065	1104.03345	409.97629	-1069.20288	1105.05066	465.51410	-1184.19128	1189.37036	340.33472	-1144.63208	913.91974	111.52776	-1032.47717	297.89786	337.90228	-1011.51044	1147.29822	376.77753	-1301.46130	643.07996	73.42629	-1190.89722	1393.70190	196.59462	-841.94550	64.68452	342.20792	-1523.66663	354.37860	-10.00846	-1287.09790	999.90045	205.41718	-1121.36365	1336.78955	114.11138	-1147.09985	934.20697	357.45975	-1165.08069	1385.84631	284.41418	-1147.15259	1622.32581	198.77690	-1084.90479	1168.18591	204.41055	-1030.38879	60.68170	317.15375	-935.43542	1138.84460	271.35983	-1254.47559	1549.72314	-73.71321	-1320.38965	1103.90002	211.31190	-1247.98389	1409.41663	-67.52791	-1283.94006	991.72589	-33.27734	-1303.48511	903.99054	-52.80335	-1302.24109	1297.57471	141.56032	-1240.98694	1547.70740	-100.22344	-1366.46411	1209.33521	304.70438	-1691.99695	219.26190	259.45755	-1728.51599	256.57251	322.29053	-1286.73889	1248.91284	158.60980	-1303.80725	972.72827	234.60464	-1293.51526	1108.22375	152.44321	-1128.72522	1620.91235	309.96899	-1291.69275	979.27374	103.72759	-1033.68311	496.79413	161.45058	-996.86334	90.43793																						192.82733	-1228.31848	1658.40466						 
14	0.130	336.24884	-1323.97437	467.65845	261.05103	-1677.98389	87.34452	353.00864	-959.79419	1092.02966	63.45732	-1087.78650	648.91937	482.74829	-1138.05823	1102.89832	411.58789	-1040.11230	1099.75208	467.52972	-1154.83496	1189.90637	340.76456	-1112.49512	914.28491	115.72141	-1004.29211	296.54388	338.81454	-982.51111	1138.56787	376.26593	-1261.88586	638.77570	71.82536	-1158.80359	1391.24976	199.68066	-810.67584	64.01979	344.28470	-1488.99524	357.08038	-10.19423	-1247.72485	996.17285	205.21339	-1089.87573	1336.33716	114.99883	-1117.09558	932.08472	357.92374	-1133.92578	1385.36108	284.40005	-1117.61511	1622.17004	199.81828	-1053.38733	1167.74963	211.15448	-999.02490	61.01617	317.05026	-905.55597	1126.83044	270.57645	-1224.42297	1548.92188	-75.08899	-1283.05115	1098.82544	209.95192	-1216.78052	1408.15967	-67.67419	-1245.43811	987.04285	-31.60828	-1264.20715	899.69232	-54.40616	-1267.92627	1292.36926	140.91423	-1210.02051	1547.06555	-102.40810	-1330.11401	1203.76746	305.89551	-1665.10510	232.73868	258.66440	-1700.61377	269.02509	321.82098	-1255.46667	1247.66553	159.20444	-1272.47668	971.51074	234.90724	-1262.00195	1107.29053	152.53912	-1098.20459	1620.91992	310.96774	-1259.82056	979.81561	104.28257	-1006.22913	493.48828	167.17238	-966.82288	90.07258																						192.26727	-1198.60449	1657.73633						 
15	0.140	336.90085	-1279.24084	460.95862	267.06702	-1649.76306	99.55405	354.94385	-932.30597	1079.24902	61.84314	-1062.57410	642.41370	485.63882	-1109.79822	1100.48767	414.14828	-1011.85382	1091.88147	469.62006	-1126.18311	1189.12024	341.01157	-1080.96387	914.34259	119.79890	-978.51099	294.70959	339.70547	-952.95105	1126.20508	375.68530	-1221.74292	633.95502	70.26193	-1126.44312	1387.86987	202.26805	-788.74506	58.46545	346.37415	-1451.25647	359.71371	-9.99970	-1206.82312	989.56256	205.19122	-1058.22278	1334.93323	115.40437	-1087.56616	929.16760	358.72366	-1102.42700	1383.82703	284.38202	-1088.16321	1621.36975	201.08563	-1022.34766	1166.02893	217.52515	-976.45538	59.98049	318.64246	-876.01221	1110.29468	269.80463	-1194.30786	1547.32495	-76.06101	-1243.76868	1090.86536	208.63512	-1185.23547	1406.22742	-66.90564	-1205.50659	979.62653	-29.82310	-1222.65466	892.57532	-56.18710	-1232.55615	1284.94397	140.23961	-1178.93982	1545.65283	-104.31747	-1292.54077	1195.06348	307.98914	-1634.08887	245.71399	259.10974	-1668.58459	281.74307	321.37701	-1224.42932	1245.90295	159.99529	-1242.18591	969.27246	234.99216	-1231.08801	1105.30823	152.75044	-1067.83777	1620.29272	311.79962	-1229.33630	978.99066	106.02879	-978.04541	491.15714	172.65723	-944.82251	88.06787																						191.84251	-1169.57520	1656.46155						 
16	0.150	337.95462	-1232.79150	453.88220	273.39633	-1619.23792	112.03644	358.55441	-905.30054	1063.58020	61.78974	-1036.96472	636.99628	488.09705	-1082.73572	1096.99829	416.79605	-984.16840	1081.70483	471.30157	-1098.13672	1187.24792	341.51080	-1049.91211	914.00098	123.24036	-955.49603	292.01938	341.93576	-922.98029	1111.28528	375.57040	-1181.23950	628.89044	68.73299	-1094.05457	1383.59680	205.88712	-774.21259	50.22011	347.55542	-1409.51074	361.04004	-9.33761	-1164.55579	980.48260	205.34711	-1026.56396	1332.58154	115.72639	-1058.32324	926.04376	359.51950	-1070.59167	1381.21301	284.31805	-1058.76208	1619.74255	202.23863	-991.53711	1163.16492	223.00912	-961.40729	57.60336	321.39987	-847.29816	1090.25085	268.97821	-1164.09070	1544.83105	-76.33377	-1202.78345	1080.28760	207.56384	-1153.45288	1403.65637	-65.96677	-1163.25317	969.90765	-27.80779	-1178.24158	883.06372	-58.11489	-1196.09912	1275.60071	139.53661	-1147.79980	1543.23083	-105.35471	-1252.63831	1183.56335	311.45306	-1598.75391	257.75415	261.53555	-1632.05701	294.47675	320.88943	-1193.08765	1243.63892	161.05544	-1212.27405	965.87427	235.08585	-1200.81543	1102.56726	152.76071	-1037.36926	1619.15308	312.90619	-1199.92798	976.65778	107.45947	-948.22858	489.85287	178.15437	-929.39819	84.79155																						190.82671	-1139.60938	1653.99866						 
17	0.160	339.22543	-1184.83862	446.10721	280.08728	-1585.37134	124.29103	362.70300	-879.89252	1045.30139	63.18503	-1009.47693	633.84613	490.04019	-1056.73755	1092.76721	419.85608	-957.93237	1069.02490	472.78061	-1070.70471	1184.55298	342.32791	-1019.26892	913.03650	126.56481	-935.13080	288.17987	344.58337	-894.01770	1093.27600	376.26480	-1140.60071	623.52643	67.05164	-1061.49854	1378.38916	211.57404	-765.48779	40.70678	348.59601	-1364.15222	360.94977	-8.27081	-1121.08850	969.09180	205.48044	-994.74817	1329.12231	116.06675	-1029.10315	922.99542	359.98526	-1038.50134	1377.50061	284.21591	-1029.28345	1617.09741	203.37077	-960.81982	1159.36926	227.84737	-952.39844	54.50059	325.58640	-819.62036	1066.81848	268.19977	-1133.85388	1541.19543	-76.37278	-1160.25757	1067.69592	206.73137	-1121.43042	1400.53613	-64.64225	-1119.30872	958.16681	-25.76245	-1131.53064	871.36993	-59.52283	-1158.72351	1264.34802	138.85263	-1116.56836	1539.67322	-106.33066	-1211.55981	1169.95386	315.71884	-1559.14612	268.87949	265.35361	-1591.67554	306.80054	320.51297	-1162.33521	1241.37268	162.77185	-1182.96033	961.54865	235.15926	-1170.83691	1099.22632	152.63945	-1007.04608	1616.52356	314.20883	-1170.81738	972.71716	108.70559	-918.59137	487.75046	183.03613	-919.08917	80.29393																						190.13359	-1109.83301	1650.45752						 
